<?xml version="1.0" encoding="utf-8"?>
<!-- Generator: Adobe Illustrator 23.0.1, SVG Export Plug-In . SVG Version: 6.00 Build 0)  -->
<svg version="1.1" id="Livello_1" xmlns="http://www.w3.org/2000/svg" xmlns:xlink="http://www.w3.org/1999/xlink" x="0px" y="0px"
	 width="1384.298px" height="440px" viewBox="0 0 1384.298 440" enable-background="new 0 0 1384.298 440" xml:space="preserve">
<g>
	<g>
		<path d="M509.008,110.545c17.249,0.038,34.485-0.088,51.734,0.063c-0.088,50.92-0.063,101.839-0.025,152.759
			c20.769-0.013,41.525,0.013,62.293-0.013v45.42c-37.98,0.025-75.96-0.05-113.94,0.038
			C508.932,242.723,509.058,176.634,509.008,110.545L509.008,110.545z"/>
		<path d="M828.78,110.507c17.224,0.075,34.435,0.025,51.646,0.025c0.013,50.945,0,101.889,0.013,152.821
			c20.781,0.063,41.562-0.088,62.344,0.075c-0.088,15.119-0.025,30.226-0.025,45.333c-38.005,0.013-76.01,0.025-114.015,0
			C828.792,242.673,828.705,176.596,828.78,110.507L828.78,110.507z"/>
		<path d="M693.383,148.099c12.501-2.405,25.867-2.054,37.779,2.768c8.292,3.345,15.295,9.069,22.059,14.794
			c0.1-5.336,0.013-10.672,0.113-16.009c15.846,0.088,31.704,0.013,47.55,0.038c-0.05,52.949,0.1,105.91-0.063,158.872
			c-16.146,0.514-32.331,0.075-48.49,0.2c0-4.935,0.025-9.871-0.013-14.794c-12.714,11.599-29.587,18.827-46.924,18.602
			c-20.18,0.363-40.886-7.34-54.327-22.71c-14.042-15.771-19.817-37.341-19.942-58.097c-0.426-18.188,4.86-36.514,15.157-51.546
			C657.144,164.082,674.167,151.869,693.383,148.099 M708.477,192.367c-11.199,2.242-20.894,10.347-25.291,20.856
			c-7.19,17.274-2.217,40.235,14.017,50.644c14.944,9.445,36.289,5.649,47.851-7.478c14.167-15.42,12.501-42.352-3.307-56.018
			C732.841,192.455,719.989,189.736,708.477,192.367z"/>
		<path d="M1060.454,160.738c14.455-11.975,34.209-16.159,52.536-13.203c13.716,1.841,25.679,9.796,35.124,19.566
			c0.1-5.8,0.05-11.599,0.05-17.399c15.357-0.013,30.702-0.063,46.059,0.025c-0.038,47.387,0,94.762-0.012,142.149
			c-0.238,17.85-6.351,36.013-18.915,48.965c-14.543,15.27-35.725,22.522-56.431,23.512c-21.282,1.04-43.679-3.52-60.916-16.61
			c-12.464-9.219-20.994-23.575-22.911-38.982c17.863,0.1,35.75-0.15,53.613,0.113c3.182,3.67,5.925,8.042,10.459,10.221
			c6.476,3.194,14.03,2.919,21.057,2.305c9.031-1.015,18.702-4.998,23.211-13.378c3.921-6.902,2.217-15.069,2.668-22.61
			c-13.178,10.986-29.926,18.727-47.35,18.063c-16.748-0.225-33.333-7.215-44.907-19.366
			c-15.733-15.971-22.535-39.045-21.783-61.103C1032.646,199.657,1041.953,175.657,1060.454,160.738 M1105.599,188.634
			c-12.038,1.866-21.508,11.762-24.74,23.224c-4.009,13.817-2.405,30.389,7.704,41.262c12.389,13.729,36.051,12.551,48.69-0.225
			c14.217-13.641,14.643-38.205,2.455-53.249C1131.592,189.761,1117.775,186.73,1105.599,188.634L1105.599,188.634z"/>
		<path d="M1249.74,159.698c16.084-11.361,36.94-15.67,56.218-11.512c11.699,2.505,21.671,9.595,30.476,17.399
			c-0.075-5.286-0.063-10.585-0.063-15.871c15.971,0,31.955-0.125,47.926,0.063v158.947c-16.184,0.1-32.381,0.05-48.565,0.025
			c0.025-4.948,0.025-9.896-0.012-14.831c-5.374,4.572-11.061,8.894-17.499,11.887c-16.86,8.418-36.953,8.543-54.703,2.969
			c-16.034-5.098-29.8-16.572-37.905-31.291c-9.633-17.199-12.313-37.516-10.698-56.945
			C1217.322,196.613,1229.898,173.552,1249.74,159.698 M1291.139,192.542c-13.078,2.793-23.712,13.779-26.619,26.756
			c-3.695,15.871,1.39,34.673,15.295,44.118c15.783,10.535,39.182,5.837,50.431-9.232c11.875-15.407,9.971-39.683-4.234-52.999
			C1316.868,192.58,1303.227,189.498,1291.139,192.542L1291.139,192.542z"/>
		<path d="M980.374,81.271c14.167-4.096,30.627,4.221,35.224,18.351c3.871,10.986,0.451,24.176-8.43,31.754
			c-8.493,7.629-21.595,9.62-31.905,4.685c-11.386-5.211-17.988-18.426-15.946-30.677C960.707,94.098,969.35,84.139,980.374,81.271
			L980.374,81.271z M963.688,149.727c15.984-0.1,31.955,0,47.938-0.05c0.025,53.036,0.025,106.073,0,159.109
			c-15.984-0.038-31.955,0.05-47.938-0.05C963.751,255.738,963.739,202.726,963.688,149.727z"/>
	</g>
	<g>
		<path fill="#FFFFFF" d="M159.272,183.799c8.568-11.424,20.443-20.33,34.047-24.802c-1.891,2.029-3.821,4.021-5.687,6.063
			c8.004-1.165,16.209-0.063,23.712,2.919c0.814,7.14,1.516,14.293,2.53,21.395c1.791-6.99,1.929-14.293,2.919-21.42
			c7.541-3.056,15.783-3.971,23.85-2.931c-2.054-2.067-4.146-4.084-6.238-6.1c13.579,4.434,25.829,13.077,34.072,24.802
			c-2.38-1.203-4.773-2.367-7.178-3.507c3.056,7.178,5.349,14.969,4.434,22.848c-6.188,3.833-13.541,5.524-19.491,9.796
			c7.04-1.253,14.029-2.831,21.044-4.171c5.336,6.125,8.643,13.716,10.297,21.608c1.328-2.405,2.618-4.823,3.821-7.29
			c0.075,14.355-4.948,28.247-12.94,40.047c0.413-2.731,0.789-5.461,1.127-8.192c-5.937,5.223-12.814,9.445-20.518,11.437
			c-5.173-5.198-9.745-10.973-15.082-15.984c2.455,6.952,7.616,12.677,10.009,19.591c-4.033,6.789-10.272,11.862-16.948,15.908
			c2.555,0.514,5.123,0.99,7.679,1.528c-6.639,1.804-13.453,2.931-20.33,3.232c-7.24-0.125-14.355-1.591-21.395-3.144
			c2.643-0.438,5.223-1.127,7.816-1.766c-6.814-4.021-12.852-9.407-17.036-16.171c3.507-6.451,7.428-12.677,10.66-19.266
			c-5.624,4.773-10.159,10.685-15.207,16.034c-7.892-1.679-14.568-6.326-20.806-11.173c0.426,2.631,0.914,5.261,1.453,7.879
			c-8.418-11.462-13.203-25.566-13.215-39.796c1.328,2.342,2.543,4.747,3.846,7.115c1.641-7.942,4.935-15.583,10.359-21.671
			c7.065,1.39,14.067,3.182,21.207,4.146c-6.276-3.783-13.203-6.288-19.779-9.457c-0.664-7.979,1.315-15.871,4.497-23.136
			C164.27,181.344,161.79,182.596,159.272,183.799 M184.075,213.223c3.67,11.925,7.591,23.762,11.524,35.6
			c12.338-0.05,24.664,0,37.003-0.025c3.808-11.825,7.654-23.637,11.537-35.45c-9.908-7.428-20.067-14.518-30.001-21.909
			C204.042,198.592,194.096,205.983,184.075,213.223L184.075,213.223z"/>
		<path fill="#901480" d="M192.73,0h5.374c5.198,26.305,9.808,52.723,14.881,79.054c0.952,4.284,1.503,8.656,1.566,13.052
			c-29.362,4.76-56.343,22.773-71.262,48.615c-0.939,2.643-3.883,3.507-6.125,1.766c-24.439-14.042-48.727-28.36-73.154-42.439
			c-1.478-1.177-4.372-2.18-3.282-4.572c1.303-3.77,3.808-6.965,5.912-10.309c15.032-23.224,35.212-43.053,58.536-57.897
			C145.719,13.979,168.918,5.286,192.73,0L192.73,0z"/>
		<path fill="#FF0000" d="M231.324,22.309c48.089-4.585,97.655,9.482,136.036,38.832c3.683,2.981,7.804,5.562,10.848,9.232
			c1.616,1.967-0.639,3.908-1.741,5.411c-16.86,19.416-33.671,38.869-50.494,58.298c-2.167,2.393-4.021,5.111-6.551,7.127
			c-2.455,1.34-4.246-1.04-6.05-2.317c-18.99-15.996-44.218-24.213-68.97-22.923c-4.196,0.138-8.317,1.127-12.514,1.027
			c-1.328-1.34-1.754-3.169-2.017-4.96c-3.595-24.865-7.328-49.704-10.986-74.557c-0.551-4.109-1.553-8.217-1.328-12.376
			C221.566,22.435,226.752,23.099,231.324,22.309z"/>
		<path d="M203.803,150.066c19.892-2.969,40.886,2.919,56.494,15.583c14.869,11.9,24.89,29.788,26.944,48.752
			c2.017,16.372-1.691,33.408-10.422,47.412c-9.746,15.896-25.742,27.834-43.78,32.568c-16.096,4.234-33.671,2.981-48.89-3.846
			c-16.547-7.315-30.201-20.906-37.529-37.454c-8.455-18.927-8.418-41.475,0.175-60.364
			C156.842,169.995,179.139,153.26,203.803,150.066 M159.272,183.799c2.518-1.203,4.998-2.455,7.528-3.633
			c-3.182,7.265-5.161,15.157-4.497,23.136c6.576,3.169,13.503,5.674,19.779,9.457c-7.14-0.965-14.142-2.756-21.207-4.146
			c-5.424,6.088-8.718,13.729-10.359,21.671c-1.303-2.367-2.518-4.773-3.846-7.115c0.013,14.23,4.798,28.335,13.215,39.796
			c-0.539-2.618-1.027-5.249-1.453-7.879c6.238,4.848,12.915,9.495,20.806,11.173c5.048-5.349,9.583-11.261,15.207-16.034
			c-3.232,6.589-7.153,12.814-10.66,19.265c4.184,6.764,10.221,12.151,17.036,16.172c-2.593,0.639-5.173,1.328-7.816,1.766
			c7.04,1.553,14.155,3.019,21.395,3.144c6.877-0.301,13.691-1.428,20.33-3.232c-2.555-0.539-5.123-1.015-7.679-1.528
			c6.677-4.046,12.915-9.119,16.948-15.908c-2.393-6.915-7.553-12.639-10.009-19.591c5.336,5.011,9.908,10.785,15.082,15.984
			c7.704-1.992,14.581-6.213,20.518-11.437c-0.338,2.731-0.714,5.461-1.127,8.192c7.992-11.8,13.015-25.692,12.94-40.047
			c-1.203,2.468-2.493,4.885-3.821,7.29c-1.653-7.892-4.96-15.483-10.297-21.608c-7.015,1.34-14.004,2.919-21.044,4.171
			c5.95-4.271,13.303-5.963,19.491-9.796c0.914-7.879-1.378-15.67-4.434-22.848c2.405,1.14,4.798,2.305,7.178,3.507
			c-8.242-11.725-20.493-20.368-34.072-24.802c2.092,2.017,4.184,4.033,6.238,6.1c-8.067-1.04-16.309-0.125-23.85,2.931
			c-0.99,7.127-1.127,14.43-2.919,21.42c-1.015-7.102-1.716-14.255-2.53-21.395c-7.503-2.981-15.708-4.084-23.712-2.919
			c1.866-2.042,3.795-4.033,5.687-6.063C179.715,163.469,167.84,172.375,159.272,183.799L159.272,183.799z"/>
		<path d="M184.074,213.223c10.021-7.24,19.967-14.631,30.063-21.783c9.933,7.391,20.092,14.48,30.001,21.909
			c-3.883,11.812-7.729,23.625-11.537,35.45c-12.338,0.025-24.664-0.025-37.003,0.025
			C191.665,236.986,187.745,225.148,184.074,213.223L184.074,213.223z"/>
		<path fill="#004AD0" d="M28.272,98.131c1.503-0.939,3.044,0.489,4.409,1.015c24.94,13.441,49.917,26.794,74.87,40.197
			c2.518,0.977,3.52,3.858,1.729,6.013c-13.766,25.391-15.483,56.769-4.86,83.601c1.478,2.28-0.739,4.384-2.869,5.048
			c-23.788,9.207-47.6,18.339-71.4,27.533c-3.708,1.365-7.303,3.132-11.173,4.021c-1.19-0.526-2.042-1.365-2.555-2.53
			c-20.568-51.997-16.885-112.812,9.445-162.103C26.38,99.697,27.182,98.77,28.272,98.131z"/>
		<path fill="#FF7D00" d="M371.493,103.367c2.981-1.791,5.512,2.004,7.516,3.758c39.308,38.619,60.891,94.499,57.446,149.502
			c-0.426,0.564-1.278,1.666-1.704,2.217c-28.36-0.914-56.719-2.756-85.079-3.896c-2.355-0.313-5.487,0.213-7.102-1.954
			c-0.401-4.134-0.025-8.28-0.225-12.414c-1.24-25.541-12.777-50.418-31.504-67.83c-2.405-1.729-1.165-4.885,0.701-6.451
			C331.61,145.406,351.264,124.086,371.493,103.367L371.493,103.367z"/>
		<path fill="#0090FF" d="M78.853,255.024c2.004-0.664,4.297-2.18,6.363-0.914c0.99,1.29,1.653,2.793,2.38,4.259
			c10.221,22.585,29.399,40.911,52.247,50.444c3.783,1.691,7.904,2.53,11.562,4.497c0.727,2.029,0.05,4.159-0.514,6.138
			c-8.668,27.558-17.199,55.153-25.817,82.724c-1.541,0.313-3.056,0.301-4.572-0.038C67.905,386.074,23.236,346.303,0.939,296.06
			c-0.864-2.155-0.727-4.535-0.939-6.802C26.218,277.709,52.611,266.535,78.853,255.024L78.853,255.024z"/>
		<path fill="#FFE500" d="M314.824,265.646c2.205-1.29,4.785-0.739,7.178-0.639c27.746,2.305,55.529,4.271,83.263,6.589
			c2.192-0.175,3.445,2.067,3.056,4.033c-3.858,55.391-33.095,108.29-77.676,141.31c-1.566,1.027-3.282,1.741-4.948,2.543
			c-17.011-22.585-33.433-45.608-50.318-68.294c-1.516-2.142-3.294-4.221-3.958-6.802c0.413-1.616,1.992-2.443,3.132-3.482
			c20.18-14.956,34.097-37.93,38.443-62.619C313.797,274.101,313.885,269.805,314.824,265.646L314.824,265.646z"/>
		<path fill="#00AA00" d="M241.783,329.255c1.791-1.678,4.309-1.09,5.487,0.977c15.044,22.184,29.888,44.519,44.894,66.74
			c1.628,2.418,3.357,4.81,4.572,7.503c-1.19,3.219-4.61,4.547-7.228,6.363c-25.666,16.121-55.116,26.155-85.292,28.973
			c-12.451-0.2-24.94-0.351-37.379,0.188c-10.81-1.428-21.633-3.094-32.155-6.025c-1.766-0.326-2.994-1.666-4.309-2.743
			c8.117-28.535,15.771-57.208,23.8-85.768c0.338-2.418,2.869-3.795,5.048-2.668C186.993,350.687,217.896,345.338,241.783,329.255
			L241.783,329.255z"/>
	</g>
</g>
</svg>
