<?xml version="1.0" standalone="no"?>
<!DOCTYPE svg PUBLIC "-//W3C//DTD SVG 20010904//EN"
 "http://www.w3.org/TR/2001/REC-SVG-20010904/DTD/svg10.dtd">
<svg version="1.0" xmlns="http://www.w3.org/2000/svg"
 width="1117.000000pt" height="1069.000000pt" viewBox="0 0 1117.000000 1069.000000"
 preserveAspectRatio="xMidYMid meet">

<g transform="translate(0.000000,1069.000000) scale(0.100000,-0.100000)"
fill="#000000" stroke="none">
<path d="M3644 6833 c-384 -555 -717 -1046 -740 -1091 -52 -103 -74 -193 -74
-309 0 -136 35 -243 124 -376 26 -39 371 -484 392 -506 2 -2 386 192 854 430
l851 434 -544 5 -544 5 819 1165 c450 641 832 1184 849 1208 l30 42 -659 0
-660 0 -698 -1007z"/>
<path d="M6763 7828 c-6 -7 -378 -537 -828 -1178 -450 -641 -831 -1183 -847
-1205 -16 -22 -216 -305 -444 -630 -260 -370 -431 -624 -459 -680 -83 -166
-103 -310 -65 -460 40 -157 66 -197 368 -583 l214 -273 131 69 c73 38 512 262
977 498 l845 429 -624 3 c-547 2 -622 4 -617 17 3 8 632 907 1399 1997 766
1091 1396 1989 1401 1996 11 18 -1437 18 -1451 0z"/>
</g>
</svg>
