<?xml version="1.0" encoding="utf-8"?>
<!-- Generator: Adobe Illustrator 23.0.1, SVG Export Plug-In . SVG Version: 6.00 Build 0)  -->
<svg version="1.1" id="Capa_1" xmlns="http://www.w3.org/2000/svg" xmlns:xlink="http://www.w3.org/1999/xlink" x="0px" y="0px"
	 viewBox="0 0 565 187" style="enable-background:new 0 0 565 187;" xml:space="preserve">
<style type="text/css">
	.st0{fill:#FFFFFF;}
	.st1{fill:#8E3089;}
	.st2{fill:#0E5CA8;}
	.st3{fill:#1A9AD7;}
	.st4{fill:#10A651;}
	.st5{fill:#FFDD09;}
	.st6{fill:#F28A24;}
	.st7{fill:#E52629;}
	.st8{fill:#020203;}
	.st9{fill:#020303;}
</style>
<g>
	<path class="st0" d="M111.2,68.3c-14.5,0-26.2,11.8-26.2,26.2c0,14.5,11.8,26.2,26.2,26.2c14.5,0,26.2-11.8,26.2-26.2
		C137.3,80.1,125.6,68.3,111.2,68.3"/>
	<polygon class="st0" points="256.7,125 216.3,125 216.3,54.5 234.6,54.5 234.6,108.9 256.7,108.9 	"/>
	<path class="st0" d="M290.5,83.1c-8.1,0-13.4,6.1-13.4,13.6c0,7.9,4.9,14.3,12.9,14.3c7.6,0,13.9-5.6,13.9-13.8
		C303.8,88.8,298,83.1,290.5,83.1 M259.8,97c0-15.7,11.6-29.6,27.3-29.6c6.9,0,11.2,2.3,16.2,6.9v-5.7h16.9V125h-17.1v-5.5
		c0,0-6.2,6.9-16.9,6.9C270.5,126.3,259.8,115.1,259.8,97"/>
	<polygon class="st0" points="370.6,125 330.2,125 330.2,54.5 348.5,54.5 348.5,108.9 370.6,108.9 	"/>
	<path class="st0" d="M395.3,125h-17V68.5h17V125z M376.6,54.1c0-5.7,4.6-10.4,10.3-10.4c5.7,0,10.4,4.6,10.4,10.2
		c0,5.8-4.6,10.5-10.5,10.5C381.1,64.4,376.6,59.9,376.6,54.1"/>
	<path class="st0" d="M431.1,82c-7.9,0-11.9,6.5-11.9,13.6c0,7.2,4.3,13.2,11.8,13.2c8.5,0,13.1-6.8,13.1-13.1
		C444.1,88,439.9,82,431.1,82 M402.6,95.6c0-15.3,9.7-28.3,24.5-28.3c7.1,0,12,2.3,16.9,7.4v-6.2h16.3v49.8
		c0,17.5-13.1,26.6-28.8,26.6c-13.8,0-25.9-7-27.8-19.7h19.1c2.4,3.8,4.7,4.6,9,4.6c6,0,11.4-2.8,11.4-8.9c0-1.5,0.1-2.8-0.1-4.2
		c-3.3,2.9-9.5,6.5-16.2,6.5C412.5,123.1,402.6,111,402.6,95.6"/>
	<path class="st0" d="M498.3,83.1c-8.1,0-13.4,6.1-13.4,13.6c0,7.9,4.9,14.3,12.9,14.3c7.6,0,13.9-5.6,13.9-13.8
		C511.6,88.8,505.8,83.1,498.3,83.1 M467.6,97c0-15.7,11.6-29.6,27.3-29.6c6.9,0,11.2,2.3,16.2,6.9v-5.7H528V125h-17.1v-5.5
		c0,0-6.2,6.9-16.9,6.9C478.4,126.3,467.6,115.1,467.6,97"/>
	<path class="st1" d="M56.6,48.9c-0.2,0.3-0.2,0.6,0.1,0.9c0.1,0.1,0.2,0.3,0.4,0.3L84.4,66h0.1c0.3,0.2,0.6,0.2,0.9-0.1
		c0.1-0.1,0.2-0.2,0.2-0.3l0.1-0.1c2.5-4.5,6.1-8.5,10.5-11.6c4.5-3.2,9.5-5.2,14.5-6.1h0.1c0.1,0,0.2-0.1,0.4-0.2
		c0.3-0.2,0.4-0.5,0.4-0.9v-0.1l-6-31v-0.1c0-0.1-0.1-0.3-0.2-0.4c-0.2-0.2-0.4-0.4-0.8-0.3h-0.1c-9.6,1.8-19.3,5.6-27.8,11.7
		C68.2,32.7,61.4,40.4,56.6,48.9"/>
	<path class="st2" d="M40.9,109c0.1,0.3,0.4,0.5,0.7,0.5c0.2,0,0.3,0,0.4-0.1L71.6,98h0.1c0.3-0.1,0.5-0.4,0.5-0.8
		c0-0.1,0-0.2,0-0.4c0-0.1,0-0.1-0.1-0.2c-1.9-4.7-2.9-10-2.5-15.4c0.4-5.4,1.9-10.6,4.4-15.1c0,0,0-0.1,0.1-0.1
		c0.1-0.1,0.1-0.2,0.1-0.4c0-0.4-0.2-0.6-0.4-0.8h-0.1L45.8,50h-0.1c-0.1-0.1-0.3-0.1-0.4-0.1c-0.4,0-0.6,0.2-0.8,0.4c0,0,0,0,0,0.1
		l0,0c-4.7,8.7-7.7,18.5-8.3,29C35.6,89.8,37.3,99.9,40.9,109"/>
	<path class="st3" d="M78.4,158.4c0.3,0.1,0.6,0,0.9-0.3c0.1-0.1,0.2-0.3,0.2-0.4l9.5-30.3v-0.1c0.1-0.4,0-0.6-0.3-0.9
		c-0.1-0.1-0.2-0.1-0.3-0.2c-0.1,0-0.1,0-0.2,0c-4.9-1.4-9.6-4-13.7-7.7c-4.1-3.7-7.1-8-9.1-12.9v-0.1c-0.1-0.1-0.1-0.2-0.2-0.3
		c-0.3-0.3-0.6-0.3-0.9-0.2h-0.1L35.2,118h-0.1c-0.1,0.1-0.3,0.1-0.3,0.3c-0.2,0.3-0.3,0.6-0.2,0.9v0.1l0,0
		c3.8,9,9.7,17.5,17.6,24.5C60.1,150.7,69.1,155.6,78.4,158.4"/>
	<path class="st4" d="M140.2,159.9c0.3-0.2,0.4-0.5,0.4-0.8c0-0.2-0.1-0.3-0.2-0.4l-17.7-26.2v-0.1c-0.2-0.3-0.5-0.4-0.9-0.4
		c-0.1,0-0.2,0.1-0.3,0.1l-0.1,0.1c-4.2,2.9-9.1,5-14.5,5.9c-5.4,0.9-10.7,0.5-15.7-0.9h-0.1c-0.1,0-0.3,0-0.4,0
		c-0.4,0.1-0.6,0.3-0.7,0.6v0.1l-8.4,30.5v0.1c0,0.1,0,0.3,0,0.4c0.1,0.4,0.3,0.5,0.6,0.7h0.1l0,0c9.5,2.7,19.7,3.4,30.1,1.7
		C122.6,169.3,132.1,165.4,140.2,159.9"/>
	<path class="st5" d="M180.4,112.8c0-0.3-0.2-0.6-0.4-0.8c-0.2-0.1-0.3-0.1-0.4-0.1l-31.6-2.5h-0.1c-0.4,0-0.6,0.2-0.8,0.4
		c-0.1,0.1-0.1,0.2-0.1,0.3c0,0.1,0,0.1,0,0.2c-0.4,5.1-1.8,10.3-4.5,15.1c-2.7,4.8-6.2,8.7-10.4,11.8c0,0-0.1,0-0.1,0.1
		c-0.1,0.1-0.2,0.2-0.3,0.3c-0.2,0.3-0.2,0.7,0.1,0.9v0.1l18.7,25.5l0,0c0.1,0.1,0.2,0.2,0.3,0.3c0.3,0.2,0.6,0.1,0.9,0
		c0,0,0,0,0.1,0l0,0c7.9-5.8,14.9-13.4,20-22.6C176.9,132.4,179.6,122.6,180.4,112.8"/>
	<path class="st6" d="M168.4,51.9c-0.3-0.2-0.6-0.3-0.9-0.2c-0.2,0.1-0.3,0.2-0.4,0.3l-21.8,22.9l-0.1,0.1c-0.2,0.3-0.3,0.6-0.2,0.9
		c0,0.1,0.1,0.2,0.2,0.3l0.1,0.1c3.7,3.5,6.9,7.9,8.9,12.9c2.1,5.1,2.9,10.4,2.5,15.5v0.1c0,0.1,0,0.3,0.1,0.4
		c0.1,0.4,0.4,0.5,0.7,0.5h0.1l31.6,1.5h0.1c0.1,0,0.3,0,0.4-0.1c0.3-0.1,0.5-0.4,0.5-0.7v-0.1c0.5-9.8-1.1-20-5-29.7
		C181.5,66.9,175.6,58.6,168.4,51.9"/>
	<path class="st7" d="M113.1,23.6c-0.3,0.1-0.5,0.3-0.7,0.6c-0.1,0.2-0.1,0.3,0,0.4L117,56v0.1c0.1,0.4,0.3,0.6,0.6,0.7
		c0.1,0,0.2,0,0.4,0c0.1,0,0.1,0,0.2,0c5.1-0.8,10.4-0.5,15.6,1c5.3,1.5,9.9,4.2,13.7,7.6l0.1,0.1c0.1,0.1,0.2,0.1,0.3,0.2
		c0.4,0.1,0.7,0,0.9-0.3v-0.1l20.7-23.9l0,0c0.1-0.1,0.2-0.2,0.2-0.4c0.1-0.4,0-0.6-0.3-0.9c0,0,0,0-0.1-0.1l0,0
		c-7.4-6.4-16.4-11.5-26.4-14.5C133,22.6,122.8,22.1,113.1,23.6"/>
	<path class="st8" d="M130.2,109.3c0.4-1.1,0.5-2.3,0.6-3.3c-0.5,0.5-1.1,1-1.7,1.4c-1.8,1.3-3.7,2.1-5.6,2.6l-5.1-5.5l-0.1,0.1
		l3.7,6.5c-1,1.7-2.4,3.3-4.2,4.6c-0.6,0.4-1.2,0.8-1.9,1.2c1,0.2,2.1,0.4,3.3,0.4c-2.5,0.9-5.3,1.4-8.1,1.4s-5.5-0.5-8.1-1.4
		c1.2,0.1,2.3-0.2,3.3-0.4c-0.6-0.4-1.2-0.7-1.9-1.2c-1.8-1.3-3.2-2.9-4.2-4.6l3.7-6.5l-0.1-0.1l-5.1,5.5c-1.9-0.4-3.8-1.2-5.6-2.6
		c-0.6-0.4-1.2-0.9-1.7-1.4c0.1,1,0.3,2.2,0.6,3.3c-3.2-4.1-5.1-9.2-5.1-14.7c0-0.3,0-0.5,0-0.8c0.3,1.2,1,2.2,1.4,3.1
		c0.1-0.7,0.3-1.4,0.5-2.1c0.7-2.1,1.8-4,3.1-5.4l7.2,1.4v-0.1l-6.8-3.1c-0.2-1.9,0-4,0.7-6.1c0.3-0.7,0.5-1.4,0.8-2.1
		c-0.9,0.4-2.1,1-3,1.8c3.1-4.7,7.9-8.2,13.6-9.8c-1.1,0.6-2,1.6-2.7,2.4c0.7-0.1,1.4-0.2,2.2-0.2c2.2,0,4.4,0.4,6.1,1.2l0.8,7.3
		h0.1l0.8-7.3c1.8-0.8,3.8-1.2,6.1-1.2c0.7,0,1.5,0.1,2.2,0.2c-0.7-0.7-1.6-1.8-2.7-2.4c5.6,1.6,10.4,5.1,13.5,9.8
		c-0.9-0.8-2.1-1.3-3-1.8c0.4,0.6,0.6,1.3,0.8,2.1c0.7,2.1,0.9,4.2,0.7,6.2l-6.8,3.1v0.1l7.2-1.4c1.3,1.4,2.4,3.3,3.1,5.4
		c0.3,0.7,0.4,1.4,0.5,2.1c0.4-0.9,1.2-2,1.4-3.1c0,0.3,0,0.5,0,0.8C135.2,100.1,133.3,105.2,130.2,109.3 M111.2,68.3
		c-14.5,0-26.2,11.8-26.2,26.2c0,14.5,11.8,26.2,26.2,26.2c14.5,0,26.2-11.8,26.2-26.2C137.3,80.1,125.6,68.3,111.2,68.3"/>
	<polygon class="st9" points="100.6,91.1 104.6,103.5 117.7,103.5 121.7,91.1 111.2,83.4 	"/>
</g>
</svg>
